<?xml version="1.0" encoding="UTF-8"?>
<svg id="Layer_2" data-name="Layer 2" xmlns="http://www.w3.org/2000/svg" xmlns:xlink="http://www.w3.org/1999/xlink" viewBox="0 0 758.71 247.41">
  <defs>
    <style>
      .cls-1 {
        fill: url(#linear-gradient);
      }

      .cls-1, .cls-2, .cls-3, .cls-4, .cls-5, .cls-6, .cls-7, .cls-8 {
        stroke-width: 0px;
      }

      .cls-2 {
        fill: url(#linear-gradient-6);
      }

      .cls-3 {
        fill: url(#linear-gradient-5);
      }

      .cls-4 {
        fill: url(#linear-gradient-2);
      }

      .cls-5 {
        fill: url(#linear-gradient-7);
      }

      .cls-6 {
        fill: url(#linear-gradient-3);
      }

      .cls-7 {
        fill: url(#linear-gradient-8);
      }

      .cls-8 {
        fill: url(#linear-gradient-4);
      }
    </style>
    <linearGradient id="linear-gradient" x1="14.85" y1="255.96" x2="285.93" y2="99.45" gradientUnits="userSpaceOnUse">
      <stop offset="0" stop-color="#2cbaf7"/>
      <stop offset=".41" stop-color="#6057fe"/>
      <stop offset=".48" stop-color="#5e56fb"/>
      <stop offset=".53" stop-color="#5b52f1"/>
      <stop offset=".57" stop-color="#564de2"/>
      <stop offset=".6" stop-color="#4e46cc"/>
      <stop offset=".64" stop-color="#443caf"/>
      <stop offset=".67" stop-color="#37308c"/>
      <stop offset=".7" stop-color="#292263"/>
      <stop offset=".73" stop-color="#181234"/>
      <stop offset=".76" stop-color="#060000"/>
      <stop offset=".81" stop-color="#650c31"/>
      <stop offset=".85" stop-color="#ae1558"/>
      <stop offset=".88" stop-color="#db1b6f"/>
      <stop offset=".89" stop-color="#ed1e79"/>
      <stop offset=".92" stop-color="#ef386d"/>
      <stop offset=".97" stop-color="#f67d50"/>
      <stop offset="1" stop-color="#fbb03b"/>
    </linearGradient>
    <linearGradient id="linear-gradient-2" x1="-21.47" y1="147.11" x2="245.29" y2="75.63" gradientUnits="userSpaceOnUse">
      <stop offset="0" stop-color="#3d0045"/>
      <stop offset="0" stop-color="#480658"/>
      <stop offset=".02" stop-color="#61147f"/>
      <stop offset=".04" stop-color="#7620a0"/>
      <stop offset=".06" stop-color="#872abc"/>
      <stop offset=".08" stop-color="#9431d1"/>
      <stop offset=".1" stop-color="#9d36e0"/>
      <stop offset=".12" stop-color="#a33ae9"/>
      <stop offset=".16" stop-color="#a53bec"/>
      <stop offset=".17" stop-color="#a23cec"/>
      <stop offset=".27" stop-color="#7e4af6"/>
      <stop offset=".36" stop-color="#6853fb"/>
      <stop offset=".41" stop-color="#6057fe"/>
      <stop offset=".49" stop-color="#5a5cfd"/>
      <stop offset=".6" stop-color="#4b6cfc"/>
      <stop offset=".71" stop-color="#3286fa"/>
      <stop offset=".75" stop-color="#2990fa"/>
      <stop offset=".81" stop-color="#38a0df"/>
      <stop offset=".93" stop-color="#60ca9a"/>
      <stop offset="1" stop-color="#78e373"/>
    </linearGradient>
    <linearGradient id="linear-gradient-3" x1="412.39" y1="127.58" x2="528.8" y2="127.58" gradientUnits="userSpaceOnUse">
      <stop offset="0" stop-color="#2cbaf7"/>
      <stop offset=".53" stop-color="#6057fe"/>
      <stop offset=".63" stop-color="#6258fb"/>
      <stop offset=".7" stop-color="#695cf1"/>
      <stop offset=".76" stop-color="#7563e2"/>
      <stop offset=".81" stop-color="#876dcc"/>
      <stop offset=".86" stop-color="#9e7aaf"/>
      <stop offset=".91" stop-color="#b98a8c"/>
      <stop offset=".96" stop-color="#da9d64"/>
      <stop offset="1" stop-color="#fbb03b"/>
    </linearGradient>
    <linearGradient id="linear-gradient-4" x1="506.51" y1="127.58" x2="621.62" y2="127.58" xlink:href="#linear-gradient-3"/>
    <linearGradient id="linear-gradient-5" x1="624.97" y1="127.56" x2="652.92" y2="127.56" gradientUnits="userSpaceOnUse">
      <stop offset="0" stop-color="#2cbaf7"/>
      <stop offset=".41" stop-color="#6057fe"/>
      <stop offset=".53" stop-color="#6255fb"/>
      <stop offset=".61" stop-color="#6c52f2"/>
      <stop offset=".68" stop-color="#7b4be3"/>
      <stop offset=".74" stop-color="#9142cf"/>
      <stop offset=".8" stop-color="#ae37b4"/>
      <stop offset=".86" stop-color="#d02993"/>
      <stop offset=".89" stop-color="#ed1e79"/>
      <stop offset=".92" stop-color="#ef386d"/>
      <stop offset=".97" stop-color="#f67d50"/>
      <stop offset="1" stop-color="#fbb03b"/>
    </linearGradient>
    <linearGradient id="linear-gradient-6" x1="323.22" y1="127.59" x2="424.34" y2="127.59" gradientTransform="translate(1081.92) rotate(-180) scale(1 -1)" xlink:href="#linear-gradient-3"/>
    <linearGradient id="linear-gradient-7" x1="357.57" y1="175.41" x2="357.57" y2="79.96" xlink:href="#linear-gradient-3"/>
    <linearGradient id="linear-gradient-8" x1="649.17" y1="264.57" x2="425.03" y2="-2.55" gradientUnits="userSpaceOnUse">
      <stop offset="0" stop-color="#f0396e"/>
      <stop offset=".13" stop-color="#c94194"/>
      <stop offset=".33" stop-color="#904ccd"/>
      <stop offset=".48" stop-color="#6d54f0"/>
      <stop offset=".56" stop-color="#6057fe"/>
      <stop offset=".79" stop-color="#4c7bfb"/>
      <stop offset="1" stop-color="#3e97f9"/>
    </linearGradient>
  </defs>
  <g id="Layer_1-2" data-name="Layer 1">
    <path class="cls-1" d="M274.1,173.53c-.8.23-1.6.44-2.41.61-19.04-2.64-30.81-27.01-51.67-64.63h.21c2.11,3.5,4.24,7,6.58,10.34,8.61,12.31,18.03,26.01,33.24,30.45,3.37.98,6.23.69,8.53-.47,0,0,1.01-.22,2.57-1.85.06-.05.1-.1.16-.16.68-.68,1.27-1.45,1.79-2.29.02-.02.02-.04.04-.06,1.75-2.42,2.57-5.57,2.47-9.02-.18-7.21-4.32-15.69-12.1-21.34-.08-.06-3.17-2.22-3.26-2.27-3.25-1.95-6.74-3.56-10.4-4.83-.09-.03-.18-.06-.26-.09-.09-.03-.18-.06-.26-.08-.02-.02-.06-.02-.07-.03-.03,0-.05-.02-.09-.02-8.84-2.98-18.51-4.05-27.61-3.51h-.05s-.05,0-.06,0c-.25.02-.49.03-.73.05-.49.03-.99.07-1.47.12-.02,0-.03,0-.05,0h-.02c-.26.02-.5.05-.75.08-.37.03-.74.07-1.1.12-5.99.73-11.76,2.23-17.28,4.61-1.54.66-3.06,1.4-4.56,2.19-.46.25-.92.49-1.37.74-1.47.82-2.92,1.68-4.35,2.57,0,0-.02.02-.03.02-5.6,3.5-10.87,7.5-16.12,11.5-13.98,10.54-27.25,22.04-39.98,34.13-.32.31-.65.62-.97.92-.37.35-.73.69-1.09,1.04-7.71,7.31-13.58,13.33-17.7,17.62-.37.39-.73.77-1.08,1.12-1.39,1.42-2.77,2.85-4.12,4.29-.17.18-.35.35-.51.53-1.06,1.07-2.18,2.26-3.39,3.57-.1.1-.19.2-.29.3-11.91,12.6-23.82,25.47-37.17,36.3-6.18,4.88-12.99,9.64-20.46,13.97-26.18,13.34-39.95,7.48-45.96-9.65h0c9.31,2.93,21.71-3.62,32.81-10.7,0,0,0,0,0,0,.1-.04.21-.1.31-.15.41-.18.81-.38,1.21-.6.29-.15.6-.31.89-.47.29-.15.6-.32.88-.5.3-.16.6-.33.88-.53,1.8-1.11,3.53-2.35,5.21-3.64,1.01-.77,2.01-1.56,2.98-2.34.55-.44,1.1-.88,1.64-1.31,19.43-15.49,36.67-33.91,54.21-51.71.14-.14.28-.28.41-.41.13-.12.24-.24.37-.36l.53-.53c.18-.19.7-.72.89-.9l18.52-18.06c.06-.05.1-.1.15-.14,2.24-2.07,4.46-4.15,6.72-6.21.47-.44.95-.88,1.42-1.31,1.32-1.2,2.64-2.38,3.98-3.57,9.12-8.12,18.52-15.96,28.35-23.21.27-.21.56-.41.84-.62,5.77-4.23,11.69-8.28,17.86-11.92,1-.58,2-1.16,3.02-1.73,1.45-.81,2.9-1.59,4.39-2.34,1.05-.53,2.1-1.05,3.17-1.55,3.77-1.75,7.77-3.01,11.86-3.87.52-.11,1.06-.22,1.59-.32.5-.1,1-.18,1.51-.26,0,0,.02,0,.03,0,.04,0,.08-.02.13-.02.05,0,.08-.02.11-.02,2.26-.36,4.52-.61,6.79-.75,16.4-1.06,33.89-.59,48.87,6.94.11.06.23.12.34.18.02,0,.03.02.05.02h.02c.28.12.55.23.82.34.05.02.09.04.14.06,2.63,1.18,5.19,2.5,7.65,3.97.05.02.1.06.14.09,10.12,6.05,18.57,14.55,23.56,25.77,1.33,3,2.36,6.14,3.05,9.4,3.97,18.91-6.55,40.94-25.1,46.39Z"/>
    <path class="cls-4" d="M271.69,174.14c-.48.1-.93.18-1.35.26-2.03.35-4.09.52-6.15.52-.06,0-.13,0-.2,0-.33,0-.67,0-1-.02h-.13c-.09,0-.18,0-.27,0-.85-.04-1.71-.1-2.56-.18-.36-.04-.71-.09-1.07-.14-.02,0-.05,0-.07,0-5.72-.76-11.34-2.69-16.41-5.43-9.61-5.17-17.53-13.01-24.61-21.32-14.41-16.96-24.58-37.01-35.67-56.15-.1-.16-.19-.32-.29-.48-3.25-5.62-6.52-11.24-9.77-16.86-3.24-5.58-6.47-11.14-9.58-16.79-4.52-8.21-9.71-16.15-16.92-22.27-1.99-1.7-4.42-3.04-7.02-3.15-4.54-.18-8.9,3-12.09,5.89-7.8,7.09-13.07,16.42-18.65,25.25-6.12,9.69-12.11,19.45-18.02,29.27-11.34,18.91-22.34,38.04-33.22,57.22-9.01,15.87-18.34,31.97-25.29,48.88-1.64,4-10.65,26.35,1.44,21.44.3-.12.6-.25.88-.37-11.1,7.08-23.5,13.62-32.82,10.7C.26,227.95,0,225.43,0,222.96c.06-7.41,2.39-14.6,4.93-21.56,2.89-7.89,6.09-15.67,9.53-23.34,17.4-38.67,40.84-74.58,62.4-111.01,10.83-18.31,21.63-36.35,35.6-52.48.02,0,.02-.02.03-.03.12-.14.24-.28.36-.41C118.88,7.21,126.35.25,135.51,0c9.94-.26,18.14,7.45,24.59,15.02,2.76,3.24,5.44,6.56,8.05,9.93.02.03.05.06.06.09.89,1.15,1.78,2.31,2.65,3.48.02.02.04.05.06.07,3.32,4.43,6.52,8.95,9.63,13.54.2.3.41.61.61.92.39.59.79,1.2,1.19,1.8,3.2,4.81,6.28,9.68,9.27,14.6,3.81,6.28,7.43,12.69,11,19.13.08.14.16.28.24.42.5.89,1,1.79,1.5,2.69,0,0,0,.02.02.03,4.23,7.67,8.45,15.35,12.91,22.9.08.14.16.29.25.43,22.44,40.15,34.37,66.35,54.16,69.09Z"/>
    <g>
      <g>
        <path class="cls-6" d="M412.39,172.29v-37.89c0-2.56,2.07-4.63,4.63-4.63h12.36c23.03,0,33.73,0,56.76-.04,6.32-.01,11.1-3.86,12.51-9.82,1.61-6.81-2.99-13.88-9.89-15.07-1.5-.26-3.06-.28-4.59-.28-22.55-.02-34.49,0-57.05,0-.99,0-7.92,0-11.97,0-1.53,0-2.77-1.24-2.77-2.77v-8.26c0-7.48,6.07-13.55,13.55-13.55h.03c28.98,0,47.46-.04,76.44,0,15.01.02,26.3,11.45,26.35,26.52.02,7.01.02,14.01,0,21.02-.07,15.39-11.28,26.62-26.79,26.67-19.38.07-38.77.05-58.15-.04-2.37-.01-4.16.65-5.97,2.15-6.77,5.59-13.61,12.56-20.7,18.28-1.92,1.55-4.77.19-4.77-2.28Z"/>
        <path class="cls-8" d="M506.51,172.28v-9.55c0-1.63,1.16-3.02,2.76-3.33,15.73-3.06,24.52-13.03,26.72-29.83.92,0,11.99,0,13,0,14.01,0,17.97,0,31.98,0,7.25,0,11.18-3.96,11.18-11.23,0-.96,0-1.92,0-2.88-.06-6.55-4.02-10.64-10.56-10.66-14.3-.05-15.73-.02-30.03-.02-.81,0-9.31,0-13.73,0-1.41,0-2.57-1.07-2.72-2.47-.71-6.64-3.29-12.56-7.45-17.93-1.4-1.81-.08-4.43,2.2-4.43,6.11,0,14.57,0,15.15,0,22.17,0,26.51-.02,48.68,0,15.11.02,26.52,10.25,27.54,25.28.54,7.93.55,15.95-.01,23.87-1.04,14.66-12.55,25-27.21,25.05-13.15.05-26.3-.03-39.45.09-1.27.01-2.52.31-3.66.86-13.41,6.53-26.76,13.18-40.13,19.8h0c-1.95.96-4.23-.46-4.23-2.63Z"/>
        <rect class="cls-3" x="624.97" y="79.96" width="27.94" height="95.19" rx="8.81" ry="8.81"/>
        <path class="cls-2" d="M697.62,104.33c-6.54.02-10.51,4.03-10.56,10.46,0,.94,0,24.23,0,25.17,0,7.13,3.93,11.01,11.18,11.02h34.95c12.36,0,22.62,8.87,24.52,20.49.32,1.96-1.25,3.73-3.28,3.73h-14.04c-12.86-.1-42.31-.03-55.16-.08-14.67-.06-26.17-10.2-27.21-24.59-.56-7.78-.55-38-.01-45.78,1.02-14.75,12.43-24.79,27.54-24.81h69.86c2,0,3.6,1.74,3.27,3.69-1.96,11.72-13.04,20.69-25.49,20.69h-35.56Z"/>
        <path class="cls-5" d="M405.19,106.28v66.65c0,1.89-3.44,3.33-4.83,1.93-3.66-3.72-7.06-7.7-10.33-11.78-1.33-1.67-2.75-3.35-4.05-5.1-1.9-2.56-4.85-4.1-8.01-4.1h-32.02c-2.21,0-4.01-1.83-4.01-4.07v-16.69c0-2.24,1.79-4.06,4-4.06h34.88c0-.51,0-1.03,0-1.54,0-4.64.02-9.27,0-13.91-.02-6.16-4.03-9.9-10.46-9.95-.94,0-24.23,0-25.17,0-7.14,0-11.02,3.71-11.02,10.53v14.37c0,3.5,0,7.01,0,10.51,0,4.59.23,9.33-1.91,13.54-2.68,5.27-7.08,9.27-10.65,13.88-2.27,2.92-4.56,5.78-7.15,8.42-1.4,1.43-4.5-.4-4.5-2.3v-14.65c.1-12.11.03-39.84.07-51.96.05-13.82,10.21-24.66,24.59-25.64,7.78-.53,38-.52,45.78,0,14.74.96,24.79,11.71,24.81,25.93Z"/>
      </g>
      <g>
        <path class="cls-7" d="M412.39,172.29v-37.89c0-2.56,2.07-4.63,4.63-4.63h12.36c23.03,0,33.73,0,56.76-.04,6.32-.01,11.1-3.86,12.51-9.82,1.61-6.81-2.99-13.88-9.89-15.07-1.5-.26-3.06-.28-4.59-.28-22.55-.02-34.49,0-57.05,0-.99,0-7.92,0-11.97,0-1.53,0-2.77-1.24-2.77-2.77v-8.26c0-7.48,6.07-13.55,13.55-13.55h.03c28.98,0,47.46-.04,76.44,0,15.01.02,26.3,11.45,26.35,26.52.02,7.01.02,14.01,0,21.02-.07,15.39-11.28,26.62-26.79,26.67-19.38.07-38.77.05-58.15-.04-2.37-.01-4.16.65-5.97,2.15-6.77,5.59-13.61,12.56-20.7,18.28-1.92,1.55-4.77.19-4.77-2.28Z"/>
        <path class="cls-7" d="M506.51,172.28v-9.55c0-1.63,1.16-3.02,2.76-3.33,15.73-3.06,24.52-13.03,26.72-29.83.92,0,11.99,0,13,0,14.01,0,17.97,0,31.98,0,7.25,0,11.18-3.96,11.18-11.23,0-.96,0-1.92,0-2.88-.06-6.55-4.02-10.64-10.56-10.66-14.3-.05-15.73-.02-30.03-.02-.81,0-9.31,0-13.73,0-1.41,0-2.57-1.07-2.72-2.47-.71-6.64-3.29-12.56-7.45-17.93-1.4-1.81-.08-4.43,2.2-4.43,6.11,0,14.57,0,15.15,0,22.17,0,26.51-.02,48.68,0,15.11.02,26.52,10.25,27.54,25.28.54,7.93.55,15.95-.01,23.87-1.04,14.66-12.55,25-27.21,25.05-13.15.05-26.3-.03-39.45.09-1.27.01-2.52.31-3.66.86-13.41,6.53-26.76,13.18-40.13,19.8h0c-1.95.96-4.23-.46-4.23-2.63Z"/>
        <rect class="cls-7" x="624.97" y="79.96" width="27.94" height="95.19" rx="8.81" ry="8.81"/>
        <path class="cls-7" d="M697.62,104.33c-6.54.02-10.51,4.03-10.56,10.46,0,.94,0,24.23,0,25.17,0,7.13,3.93,11.01,11.18,11.02h34.95c12.36,0,22.62,8.87,24.52,20.49.32,1.96-1.25,3.73-3.28,3.73h-14.04c-12.86-.1-42.31-.03-55.16-.08-14.67-.06-26.17-10.2-27.21-24.59-.56-7.78-.55-38-.01-45.78,1.02-14.75,12.43-24.79,27.54-24.81h69.86c2,0,3.6,1.74,3.27,3.69-1.96,11.72-13.04,20.69-25.49,20.69h-35.56Z"/>
        <path class="cls-7" d="M405.19,106.28v66.65c0,1.89-3.44,3.33-4.83,1.93-3.66-3.72-7.06-7.7-10.33-11.78-1.33-1.67-2.75-3.35-4.05-5.1-1.9-2.56-4.85-4.1-8.01-4.1h-32.02c-2.21,0-4.01-1.83-4.01-4.07v-16.69c0-2.24,1.79-4.06,4-4.06h34.88c0-.51,0-1.03,0-1.54,0-4.64.02-9.27,0-13.91-.02-6.16-4.03-9.9-10.46-9.95-.94,0-24.23,0-25.17,0-7.14,0-11.02,3.71-11.02,10.53v14.37c0,3.5,0,7.01,0,10.51,0,4.59.23,9.33-1.91,13.54-2.68,5.27-7.08,9.27-10.65,13.88-2.27,2.92-4.56,5.78-7.15,8.42-1.4,1.43-4.5-.4-4.5-2.3v-14.65c.1-12.11.03-39.84.07-51.96.05-13.82,10.21-24.66,24.59-25.64,7.78-.53,38-.52,45.78,0,14.74.96,24.79,11.71,24.81,25.93Z"/>
      </g>
    </g>
  </g>
</svg>